<svg id="visual" viewBox="0 0 960 540" width="960" height="540" xmlns="http://www.w3.org/2000/svg" xmlns:xlink="http://www.w3.org/1999/xlink" version="1.1"><rect x="0" y="0" width="960" height="540" fill="#151426"></rect><defs><linearGradient id="grad1_0" x1="43.8%" y1="0%" x2="100%" y2="100%"><stop offset="14.444444444444446%" stop-color="#f26bdc" stop-opacity="1"></stop><stop offset="85.55555555555554%" stop-color="#f26bdc" stop-opacity="1"></stop></linearGradient></defs><defs><linearGradient id="grad1_1" x1="43.8%" y1="0%" x2="100%" y2="100%"><stop offset="14.444444444444446%" stop-color="#f26bdc" stop-opacity="1"></stop><stop offset="85.55555555555554%" stop-color="#9553a6" stop-opacity="1"></stop></linearGradient></defs><defs><linearGradient id="grad1_2" x1="43.8%" y1="0%" x2="100%" y2="100%"><stop offset="14.444444444444446%" stop-color="#493567" stop-opacity="1"></stop><stop offset="85.55555555555554%" stop-color="#9553a6" stop-opacity="1"></stop></linearGradient></defs><defs><linearGradient id="grad1_3" x1="43.8%" y1="0%" x2="100%" y2="100%"><stop offset="14.444444444444446%" stop-color="#493567" stop-opacity="1"></stop><stop offset="85.55555555555554%" stop-color="#151426" stop-opacity="1"></stop></linearGradient></defs><defs><linearGradient id="grad2_0" x1="0%" y1="0%" x2="56.3%" y2="100%"><stop offset="14.444444444444446%" stop-color="#f26bdc" stop-opacity="1"></stop><stop offset="85.55555555555554%" stop-color="#f26bdc" stop-opacity="1"></stop></linearGradient></defs><defs><linearGradient id="grad2_1" x1="0%" y1="0%" x2="56.3%" y2="100%"><stop offset="14.444444444444446%" stop-color="#9553a6" stop-opacity="1"></stop><stop offset="85.55555555555554%" stop-color="#f26bdc" stop-opacity="1"></stop></linearGradient></defs><defs><linearGradient id="grad2_2" x1="0%" y1="0%" x2="56.3%" y2="100%"><stop offset="14.444444444444446%" stop-color="#9553a6" stop-opacity="1"></stop><stop offset="85.55555555555554%" stop-color="#493567" stop-opacity="1"></stop></linearGradient></defs><defs><linearGradient id="grad2_3" x1="0%" y1="0%" x2="56.3%" y2="100%"><stop offset="14.444444444444446%" stop-color="#151426" stop-opacity="1"></stop><stop offset="85.55555555555554%" stop-color="#493567" stop-opacity="1"></stop></linearGradient></defs><g transform="translate(960, 0)"><path d="M0 216C-23.9 195.9 -47.9 175.8 -66.2 159.8C-84.5 143.8 -97.3 131.9 -121.6 121.6C-146 111.3 -181.9 102.7 -199.6 82.7C-217.2 62.7 -216.6 31.3 -216 0L0 0Z" fill="#2c2546"></path><path d="M0 162C-17.9 146.9 -35.9 131.9 -49.7 119.9C-63.4 107.9 -73 98.9 -91.2 91.2C-109.5 83.5 -136.4 77 -149.7 62C-162.9 47 -162.5 23.5 -162 0L0 0Z" fill="#6d4488"></path><path d="M0 108C-12 98 -23.9 87.9 -33.1 79.9C-42.3 71.9 -48.6 66 -60.8 60.8C-73 55.7 -90.9 51.3 -99.8 41.3C-108.6 31.3 -108.3 15.7 -108 0L0 0Z" fill="#c260c3"></path><path d="M0 54C-6 49 -12 44 -16.6 40C-21.1 36 -24.3 33 -30.4 30.4C-36.5 27.8 -45.5 25.7 -49.9 20.7C-54.3 15.7 -54.2 7.8 -54 0L0 0Z" fill="#f26bdc"></path></g><g transform="translate(0, 540)"><path d="M0 -216C26 -202.3 52 -188.7 71.9 -173.7C91.9 -158.7 105.8 -142.5 128.7 -128.7C151.6 -114.9 183.5 -103.7 199.6 -82.7C215.6 -61.6 215.8 -30.8 216 0L0 0Z" fill="#2c2546"></path><path d="M0 -162C19.5 -151.7 39 -141.5 54 -130.3C68.9 -119 79.3 -106.8 96.5 -96.5C113.7 -86.2 137.6 -77.8 149.7 -62C161.7 -46.2 161.9 -23.1 162 0L0 0Z" fill="#6d4488"></path><path d="M0 -108C13 -101.2 26 -94.3 36 -86.8C45.9 -79.4 52.9 -71.2 64.3 -64.3C75.8 -57.5 91.8 -51.8 99.8 -41.3C107.8 -30.8 107.9 -15.4 108 0L0 0Z" fill="#c260c3"></path><path d="M0 -54C6.5 -50.6 13 -47.2 18 -43.4C23 -39.7 26.4 -35.6 32.2 -32.2C37.9 -28.7 45.9 -25.9 49.9 -20.7C53.9 -15.4 54 -7.7 54 0L0 0Z" fill="#f26bdc"></path></g></svg>